<mxfile host="app.diagrams.net" agent="Mozilla/5.0 (Windows NT 10.0; Win64; x64) AppleWebKit/537.36 (KHTML, like Gecko) Chrome/131.0.0.0 Safari/537.36" version="24.8.3">
  <diagram name="Page-1" id="64c3da0e-402f-94eb-ee01-a36477274f13">
    <mxGraphModel dx="3464" dy="1837" grid="1" gridSize="10" guides="1" tooltips="1" connect="1" arrows="1" fold="1" page="1" pageScale="1" pageWidth="1169" pageHeight="826" background="none" math="0" shadow="0">
      <root>
        <mxCell id="0" />
        <mxCell id="1" parent="0" />
        <mxCell id="2" value="quản lý website bán hàng thủy sản " style="whiteSpace=wrap;rounded=1;shadow=1;fillColor=none;strokeColor=#030303;fontColor=#030303;fontStyle=1;fontSize=16;rotation=90;" parent="1" vertex="1">
          <mxGeometry x="-120" y="-530" width="340" height="60" as="geometry" />
        </mxCell>
        <mxCell id="118" value="" style="edgeStyle=elbowEdgeStyle;elbow=horizontal;rounded=0;fontColor=#000000;endArrow=none;endFill=0;strokeWidth=8;strokeColor=#23445D;fillColor=#000000;" parent="1" target="45" edge="1">
          <mxGeometry width="100" height="100" relative="1" as="geometry">
            <mxPoint x="440" y="330" as="sourcePoint" />
            <mxPoint x="429.99999999999955" y="430" as="targetPoint" />
            <Array as="points">
              <mxPoint x="420" y="380" />
            </Array>
          </mxGeometry>
        </mxCell>
        <mxCell id="119" value="" style="edgeStyle=elbowEdgeStyle;elbow=horizontal;rounded=0;fontColor=#000000;endArrow=none;endFill=0;strokeWidth=8;strokeColor=#23445D;fillColor=#000000;" parent="1" target="46" edge="1">
          <mxGeometry width="100" height="100" relative="1" as="geometry">
            <mxPoint x="440" y="330" as="sourcePoint" />
            <mxPoint x="429.9999999999998" y="510" as="targetPoint" />
            <Array as="points">
              <mxPoint x="420" y="420" />
            </Array>
          </mxGeometry>
        </mxCell>
        <mxCell id="120" value="" style="edgeStyle=elbowEdgeStyle;elbow=horizontal;rounded=0;fontColor=#000000;endArrow=none;endFill=0;strokeWidth=8;strokeColor=#23445D;fillColor=#000000;" parent="1" target="49" edge="1">
          <mxGeometry width="100" height="100" relative="1" as="geometry">
            <mxPoint x="440" y="330" as="sourcePoint" />
            <mxPoint x="430" y="750" as="targetPoint" />
            <Array as="points">
              <mxPoint x="420" y="550" />
            </Array>
          </mxGeometry>
        </mxCell>
        <mxCell id="121" value="" style="edgeStyle=elbowEdgeStyle;elbow=horizontal;rounded=0;fontColor=#000000;endArrow=none;endFill=0;strokeWidth=8;strokeColor=#23445D;fillColor=#000000;" parent="1" target="48" edge="1">
          <mxGeometry width="100" height="100" relative="1" as="geometry">
            <mxPoint x="440" y="330" as="sourcePoint" />
            <mxPoint x="430" y="670" as="targetPoint" />
            <Array as="points">
              <mxPoint x="420" y="500" />
            </Array>
          </mxGeometry>
        </mxCell>
        <mxCell id="122" value="" style="edgeStyle=elbowEdgeStyle;elbow=horizontal;rounded=0;fontColor=#000000;endArrow=none;endFill=0;strokeWidth=8;strokeColor=#23445D;fillColor=#000000;" parent="1" target="47" edge="1">
          <mxGeometry width="100" height="100" relative="1" as="geometry">
            <mxPoint x="440" y="330" as="sourcePoint" />
            <mxPoint x="429.9999999999998" y="590" as="targetPoint" />
            <Array as="points">
              <mxPoint x="420" y="470" />
            </Array>
          </mxGeometry>
        </mxCell>
        <mxCell id="229" value="" style="edgeStyle=elbowEdgeStyle;elbow=vertical;rounded=0;fontColor=#030303;endArrow=none;endFill=0;strokeWidth=8;strokeColor=#030303;entryX=0;entryY=0.5;entryDx=0;entryDy=0;fillColor=none;exitX=1;exitY=0.5;exitDx=0;exitDy=0;fontStyle=1" parent="1" source="2" target="3" edge="1">
          <mxGeometry width="100" height="100" relative="1" as="geometry">
            <mxPoint x="299" y="-230" as="sourcePoint" />
            <mxPoint x="-876" y="-160.00000000000023" as="targetPoint" />
            <Array as="points">
              <mxPoint x="-410" y="-270" />
            </Array>
          </mxGeometry>
        </mxCell>
        <mxCell id="231" value="" style="edgeStyle=elbowEdgeStyle;elbow=vertical;rounded=0;fontColor=#030303;endArrow=none;endFill=0;strokeWidth=8;strokeColor=#030303;fillColor=none;exitX=1;exitY=0.5;exitDx=0;exitDy=0;fontStyle=1" parent="1" source="2" target="6" edge="1">
          <mxGeometry width="100" height="100" relative="1" as="geometry">
            <mxPoint x="20" y="-510" as="sourcePoint" />
            <mxPoint x="-210" y="-270" as="targetPoint" />
            <Array as="points">
              <mxPoint x="-30" y="-270" />
            </Array>
          </mxGeometry>
        </mxCell>
        <mxCell id="3" value="quản lý sản phẩm " style="whiteSpace=wrap;rounded=1;fillColor=none;strokeColor=#030303;shadow=1;fontColor=#030303;fontStyle=1;fontSize=16;rotation=90;" parent="1" vertex="1">
          <mxGeometry x="-940" y="-170.0000000000002" width="140" height="60" as="geometry" />
        </mxCell>
        <mxCell id="5" value="chức năng giao hàng " style="whiteSpace=wrap;rounded=1;fillColor=none;strokeColor=#030303;shadow=1;fontColor=#030303;fontStyle=1;fontSize=16;rotation=90;" parent="1" vertex="1">
          <mxGeometry x="760" y="-170.0000000000002" width="140" height="60" as="geometry" />
        </mxCell>
        <mxCell id="6" value="quản lý khách hàng " style="whiteSpace=wrap;rounded=1;fillColor=none;strokeColor=#030303;shadow=1;fontColor=#030303;fontStyle=1;fontSize=16;rotation=90;" parent="1" vertex="1">
          <mxGeometry x="-180" y="-170.0000000000002" width="140" height="60" as="geometry" />
        </mxCell>
        <mxCell id="23" value="thêm sản phẩm " style="whiteSpace=wrap;rounded=1;fillColor=none;strokeColor=#030303;shadow=1;fontColor=#030303;fontStyle=1;fontSize=16;rotation=90;" parent="1" vertex="1">
          <mxGeometry x="-820" y="-22" width="120" height="60" as="geometry" />
        </mxCell>
        <mxCell id="24" value="xóa sản phẩm " style="whiteSpace=wrap;rounded=1;fillColor=none;strokeColor=#030303;shadow=1;fontColor=#030303;fontStyle=1;fontSize=16;rotation=90;" parent="1" vertex="1">
          <mxGeometry x="-819.9999999999999" y="108.00000000000011" width="120" height="60" as="geometry" />
        </mxCell>
        <mxCell id="25" value="sửa sản phẩm" style="whiteSpace=wrap;rounded=1;fillColor=none;strokeColor=#030303;shadow=1;fontColor=#030303;fontStyle=1;fontSize=16;rotation=90;" parent="1" vertex="1">
          <mxGeometry x="-820" y="258.0000000000001" width="120" height="60" as="geometry" />
        </mxCell>
        <mxCell id="26" value="tìm kiếm sắp xếp " style="whiteSpace=wrap;rounded=1;fillColor=none;strokeColor=#030303;shadow=1;fontColor=#030303;fontStyle=1;fontSize=16;rotation=90;" parent="1" vertex="1">
          <mxGeometry x="-819.9999999999998" y="398.0000000000001" width="120" height="60" as="geometry" />
        </mxCell>
        <mxCell id="38" value="quản lý kho hàng" style="whiteSpace=wrap;rounded=1;fillColor=none;strokeColor=#030303;shadow=1;fontColor=#030303;fontStyle=1;fontSize=16;rotation=90;" parent="1" vertex="1">
          <mxGeometry x="-640.0000000000005" y="-179.9999999999999" width="120" height="60" as="geometry" />
        </mxCell>
        <mxCell id="39" value="theo dõi hàng tồn kho" style="whiteSpace=wrap;rounded=1;fillColor=none;strokeColor=#030303;shadow=1;fontColor=#030303;fontStyle=1;fontSize=16;rotation=90;" parent="1" vertex="1">
          <mxGeometry x="-540.0000000000002" y="-21.999999999999886" width="120" height="60" as="geometry" />
        </mxCell>
        <mxCell id="40" value="cập nhật hành tồn kho" style="whiteSpace=wrap;rounded=1;fillColor=none;strokeColor=#030303;shadow=1;fontColor=#030303;fontStyle=1;fontSize=16;rotation=90;" parent="1" vertex="1">
          <mxGeometry x="-540.0000000000002" y="106.00000000000011" width="120" height="60" as="geometry" />
        </mxCell>
        <mxCell id="41" value="thông báo hàng tồn kho thấp " style="whiteSpace=wrap;rounded=1;fillColor=none;strokeColor=#030303;shadow=1;fontColor=#030303;fontStyle=1;fontSize=16;rotation=90;" parent="1" vertex="1">
          <mxGeometry x="-540.0000000000001" y="236.0000000000001" width="120" height="60" as="geometry" />
        </mxCell>
        <mxCell id="42" value="nhập / xuất kho" style="whiteSpace=wrap;rounded=1;fillColor=none;strokeColor=#030303;shadow=1;fontColor=#030303;fontStyle=1;fontSize=16;rotation=90;" parent="1" vertex="1">
          <mxGeometry x="-540" y="376.0000000000001" width="120" height="60" as="geometry" />
        </mxCell>
        <mxCell id="50" value="quản lý quy trình đặt hàng " style="whiteSpace=wrap;rounded=1;fillColor=none;strokeColor=#030303;shadow=1;fontColor=#030303;fontStyle=1;arcSize=28;fontSize=16;rotation=90;" parent="1" vertex="1">
          <mxGeometry x="-300.0000000000007" y="-19.999999999999886" width="120" height="60" as="geometry" />
        </mxCell>
        <mxCell id="51" value="quản lý trạng tái đơn hàng " style="whiteSpace=wrap;rounded=1;fillColor=none;strokeColor=#030303;shadow=1;fontColor=#030303;fontStyle=1;fontSize=16;rotation=90;" parent="1" vertex="1">
          <mxGeometry x="-305.00000000000045" y="112.00000000000011" width="120" height="60" as="geometry" />
        </mxCell>
        <mxCell id="52" value="gữi thông báo tự động" style="whiteSpace=wrap;rounded=1;fillColor=none;strokeColor=#030303;shadow=1;fontColor=#030303;fontStyle=1;fontSize=16;rotation=90;" parent="1" vertex="1">
          <mxGeometry x="-305.00000000000045" y="242.0000000000001" width="120" height="60" as="geometry" />
        </mxCell>
        <mxCell id="103" value="" style="edgeStyle=elbowEdgeStyle;elbow=vertical;rounded=0;fontColor=#030303;endArrow=none;endFill=0;strokeWidth=8;strokeColor=#030303;fillColor=none;fontSize=16;exitX=1;exitY=0.5;exitDx=0;exitDy=0;fontStyle=1" parent="1" source="3" edge="1">
          <mxGeometry width="100" height="100" relative="1" as="geometry">
            <mxPoint x="-870" y="-90" as="sourcePoint" />
            <mxPoint x="-870" y="230" as="targetPoint" />
            <Array as="points">
              <mxPoint x="-810" y="-50" />
            </Array>
          </mxGeometry>
        </mxCell>
        <mxCell id="112" value="" style="edgeStyle=elbowEdgeStyle;elbow=horizontal;rounded=0;fontColor=#030303;endArrow=none;endFill=0;strokeWidth=8;strokeColor=#030303;fillColor=none;fontSize=16;fontStyle=1" parent="1" source="38" target="39" edge="1">
          <mxGeometry width="100" height="100" relative="1" as="geometry">
            <mxPoint x="-570" y="-90" as="sourcePoint" />
            <mxPoint x="-610" y="180.0000000000004" as="targetPoint" />
            <Array as="points">
              <mxPoint x="-580" y="-38" />
            </Array>
          </mxGeometry>
        </mxCell>
        <mxCell id="113" value="" style="edgeStyle=elbowEdgeStyle;elbow=horizontal;rounded=0;fontColor=#030303;endArrow=none;endFill=0;strokeWidth=8;strokeColor=#030303;fillColor=none;fontSize=16;fontStyle=1" parent="1" source="38" target="42" edge="1">
          <mxGeometry width="100" height="100" relative="1" as="geometry">
            <mxPoint x="-577" y="-88" as="sourcePoint" />
            <mxPoint x="-609.9999999999995" y="420.00000000000034" as="targetPoint" />
            <Array as="points">
              <mxPoint x="-580" y="50" />
            </Array>
          </mxGeometry>
        </mxCell>
        <mxCell id="114" value="" style="edgeStyle=elbowEdgeStyle;elbow=horizontal;rounded=0;fontColor=#030303;endArrow=none;endFill=0;strokeWidth=8;strokeColor=#030303;fillColor=none;fontSize=16;fontStyle=1" parent="1" source="38" target="41" edge="1">
          <mxGeometry width="100" height="100" relative="1" as="geometry">
            <mxPoint x="-570" y="-88" as="sourcePoint" />
            <mxPoint x="-609.9999999999998" y="340.00000000000034" as="targetPoint" />
            <Array as="points">
              <mxPoint x="-580" y="40" />
            </Array>
          </mxGeometry>
        </mxCell>
        <mxCell id="123" value="" style="edgeStyle=elbowEdgeStyle;elbow=horizontal;rounded=0;fontColor=#030303;endArrow=none;endFill=0;strokeWidth=8;strokeColor=#030303;fillColor=none;fontSize=16;entryX=0.5;entryY=1;entryDx=0;entryDy=0;fontStyle=1" parent="1" source="4" target="50" edge="1">
          <mxGeometry width="100" height="100" relative="1" as="geometry">
            <mxPoint x="-340" y="-90" as="sourcePoint" />
            <mxPoint x="-320.00000000000045" y="40" as="targetPoint" />
            <Array as="points">
              <mxPoint x="-340" y="10" />
            </Array>
          </mxGeometry>
        </mxCell>
        <mxCell id="124" value="" style="edgeStyle=elbowEdgeStyle;elbow=horizontal;rounded=0;fontColor=#030303;endArrow=none;endFill=0;strokeWidth=8;strokeColor=#030303;fillColor=none;entryX=0.5;entryY=1;entryDx=0;entryDy=0;fontSize=16;fontStyle=1" parent="1" target="51" edge="1">
          <mxGeometry width="100" height="100" relative="1" as="geometry">
            <mxPoint x="-340" y="-20.000000000000227" as="sourcePoint" />
            <mxPoint x="-245" y="133" as="targetPoint" />
            <Array as="points">
              <mxPoint x="-340" y="160" />
            </Array>
          </mxGeometry>
        </mxCell>
        <mxCell id="127" value="" style="edgeStyle=elbowEdgeStyle;elbow=horizontal;rounded=0;fontColor=#030303;endArrow=none;endFill=0;strokeWidth=8;strokeColor=#030303;fillColor=none;fontSize=16;fontStyle=1" parent="1" target="52" edge="1">
          <mxGeometry width="100" height="100" relative="1" as="geometry">
            <mxPoint x="-340" y="-70" as="sourcePoint" />
            <mxPoint x="-270.0000000000002" y="260" as="targetPoint" />
            <Array as="points">
              <mxPoint x="-340" y="150" />
            </Array>
          </mxGeometry>
        </mxCell>
        <mxCell id="140" value="quản lý hồ sơ khách hàng " style="whiteSpace=wrap;rounded=1;fillColor=none;strokeColor=#030303;shadow=1;fontColor=#030303;fontStyle=1;fontSize=16;rotation=90;" parent="1" vertex="1">
          <mxGeometry x="-70.00000000000068" y="-21.999999999999886" width="120" height="60" as="geometry" />
        </mxCell>
        <mxCell id="141" value="quản lý lịch sử mua hàng " style="whiteSpace=wrap;rounded=1;fillColor=none;strokeColor=#030303;shadow=1;fontColor=#030303;fontStyle=1;fontSize=16;rotation=90;" parent="1" vertex="1">
          <mxGeometry x="-70.00000000000045" y="108.00000000000011" width="120" height="60" as="geometry" />
        </mxCell>
        <mxCell id="142" value="quảng lý hàng sỉ " style="whiteSpace=wrap;rounded=1;fillColor=none;strokeColor=#030303;shadow=1;fontColor=#030303;fontStyle=1;fontSize=16;rotation=90;" parent="1" vertex="1">
          <mxGeometry x="-70.00000000000045" y="240.0000000000001" width="120" height="60" as="geometry" />
        </mxCell>
        <mxCell id="150" value="" style="edgeStyle=elbowEdgeStyle;elbow=horizontal;rounded=0;fontColor=#030303;endArrow=none;endFill=0;strokeWidth=8;strokeColor=#030303;fillColor=none;fontSize=16;fontStyle=1" parent="1" edge="1">
          <mxGeometry width="100" height="100" relative="1" as="geometry">
            <mxPoint x="-110" y="-20" as="sourcePoint" />
            <mxPoint x="-30.00000000000091" y="-14" as="targetPoint" />
            <Array as="points">
              <mxPoint x="-110" y="70" />
            </Array>
          </mxGeometry>
        </mxCell>
        <mxCell id="151" value="" style="edgeStyle=elbowEdgeStyle;elbow=horizontal;rounded=0;fontColor=#030303;endArrow=none;endFill=0;strokeWidth=8;strokeColor=#030303;fillColor=none;fontSize=16;fontStyle=1" parent="1" target="141" edge="1">
          <mxGeometry width="100" height="100" relative="1" as="geometry">
            <mxPoint x="-110" y="-52" as="sourcePoint" />
            <mxPoint x="-110.00000000000023" y="168" as="targetPoint" />
            <Array as="points">
              <mxPoint x="-110" y="48" />
            </Array>
          </mxGeometry>
        </mxCell>
        <mxCell id="154" value="" style="edgeStyle=elbowEdgeStyle;elbow=horizontal;rounded=0;fontColor=#030303;endArrow=none;endFill=0;strokeWidth=8;strokeColor=#030303;fillColor=none;fontSize=16;fontStyle=1" parent="1" target="142" edge="1">
          <mxGeometry width="100" height="100" relative="1" as="geometry">
            <mxPoint x="-110" y="-52" as="sourcePoint" />
            <mxPoint x="-110.00000000000023" y="248" as="targetPoint" />
            <Array as="points">
              <mxPoint x="-110" y="128" />
            </Array>
          </mxGeometry>
        </mxCell>
        <mxCell id="156" value="chức năng marketing" style="whiteSpace=wrap;rounded=1;fillColor=none;strokeColor=#030303;shadow=1;fontColor=#030303;fontSize=16;rotation=90;fontStyle=1" parent="1" vertex="1">
          <mxGeometry x="79.99999999999977" y="-179.99999999999977" width="120" height="60" as="geometry" />
        </mxCell>
        <mxCell id="162" value="gữi thông báo email " style="whiteSpace=wrap;rounded=1;fillColor=none;strokeColor=#030303;shadow=1;fontColor=#030303;fontStyle=1;fontSize=16;rotation=90;" parent="1" vertex="1">
          <mxGeometry x="178.99999999999932" y="-19.999999999999773" width="120" height="60" as="geometry" />
        </mxCell>
        <mxCell id="163" value="kết nối mạng xã hội &#xa;" style="whiteSpace=wrap;rounded=1;fillColor=none;strokeColor=#030303;shadow=1;fontColor=#030303;fontStyle=1;fontSize=16;rotation=90;" parent="1" vertex="1">
          <mxGeometry x="178.99999999999955" y="120.00000000000023" width="120" height="60" as="geometry" />
        </mxCell>
        <mxCell id="164" value="SEO&#xa; tìm kiếm &#xa;" style="whiteSpace=wrap;rounded=1;fillColor=none;strokeColor=#030303;shadow=1;fontColor=#030303;fontStyle=1;fontSize=16;rotation=90;" parent="1" vertex="1">
          <mxGeometry x="178.99999999999955" y="250.00000000000023" width="120" height="60" as="geometry" />
        </mxCell>
        <mxCell id="172" value="" style="edgeStyle=elbowEdgeStyle;elbow=horizontal;rounded=0;fontColor=#030303;endArrow=none;endFill=0;strokeWidth=8;strokeColor=#030303;fillColor=none;fontSize=16;fontStyle=1" parent="1" source="156" target="162" edge="1">
          <mxGeometry width="100" height="100" relative="1" as="geometry">
            <mxPoint x="130" y="20.00000000000057" as="sourcePoint" />
            <mxPoint x="139.99999999999955" y="120.00000000000011" as="targetPoint" />
            <Array as="points">
              <mxPoint x="140" y="10" />
            </Array>
          </mxGeometry>
        </mxCell>
        <mxCell id="173" value="" style="edgeStyle=elbowEdgeStyle;elbow=horizontal;rounded=0;fontColor=#030303;endArrow=none;endFill=0;strokeWidth=8;strokeColor=#030303;fillColor=none;fontSize=16;fontStyle=1" parent="1" source="156" target="163" edge="1">
          <mxGeometry width="100" height="100" relative="1" as="geometry">
            <mxPoint x="140" y="20.000000000000114" as="sourcePoint" />
            <mxPoint x="139.99999999999977" y="200.0000000000001" as="targetPoint" />
            <Array as="points">
              <mxPoint x="140" y="70" />
            </Array>
          </mxGeometry>
        </mxCell>
        <mxCell id="176" value="" style="edgeStyle=elbowEdgeStyle;elbow=horizontal;rounded=0;fontColor=#030303;endArrow=none;endFill=0;strokeWidth=8;strokeColor=#030303;fillColor=none;fontSize=16;fontStyle=1" parent="1" source="156" target="164" edge="1">
          <mxGeometry width="100" height="100" relative="1" as="geometry">
            <mxPoint x="140" y="20.000000000000114" as="sourcePoint" />
            <mxPoint x="139.99999999999977" y="280.0000000000001" as="targetPoint" />
            <Array as="points">
              <mxPoint x="140" y="140" />
            </Array>
          </mxGeometry>
        </mxCell>
        <mxCell id="178" value="chức năng phân tích báo cáo " style="whiteSpace=wrap;rounded=1;fillColor=none;strokeColor=#030303;shadow=1;fontColor=#030303;fontSize=16;rotation=90;fontStyle=1" parent="1" vertex="1">
          <mxGeometry x="309.9999999999998" y="-180.0000000000001" width="120" height="60" as="geometry" />
        </mxCell>
        <mxCell id="184" value="báo cáo doanh thu" style="whiteSpace=wrap;rounded=1;fillColor=none;strokeColor=#030303;shadow=1;fontColor=#030303;fontStyle=1;fontSize=16;rotation=90;" parent="1" vertex="1">
          <mxGeometry x="429.9999999999993" y="-20.000000000000114" width="120" height="60" as="geometry" />
        </mxCell>
        <mxCell id="186" value="hiệu quả quảng cáo" style="whiteSpace=wrap;rounded=1;fillColor=none;strokeColor=#030303;shadow=1;fontColor=#030303;fontStyle=1;fontSize=16;rotation=90;" parent="1" vertex="1">
          <mxGeometry x="429.99999999999955" y="122.99999999999989" width="120" height="60" as="geometry" />
        </mxCell>
        <mxCell id="187" value="xu hướng tiêu dùng" style="whiteSpace=wrap;rounded=1;fillColor=none;strokeColor=#030303;shadow=1;fontColor=#030303;fontStyle=1;fontSize=16;rotation=90;" parent="1" vertex="1">
          <mxGeometry x="429.99999999999955" y="269.9999999999999" width="120" height="60" as="geometry" />
        </mxCell>
        <mxCell id="194" value="" style="edgeStyle=elbowEdgeStyle;elbow=horizontal;rounded=0;fontColor=#030303;endArrow=none;endFill=0;strokeWidth=8;strokeColor=#030303;fillColor=none;fontSize=16;fontStyle=1" parent="1" source="178" target="184" edge="1">
          <mxGeometry width="100" height="100" relative="1" as="geometry">
            <mxPoint x="850" y="2.2737367544323206e-13" as="sourcePoint" />
            <mxPoint x="859.9999999999995" y="99.99999999999977" as="targetPoint" />
            <Array as="points">
              <mxPoint x="370" y="-30" />
            </Array>
          </mxGeometry>
        </mxCell>
        <mxCell id="197" value="" style="edgeStyle=elbowEdgeStyle;elbow=horizontal;rounded=0;fontColor=#030303;endArrow=none;endFill=0;strokeWidth=8;strokeColor=#030303;fillColor=none;fontSize=16;fontStyle=1" parent="1" source="178" target="187" edge="1">
          <mxGeometry width="100" height="100" relative="1" as="geometry">
            <mxPoint x="860" y="-2.2737367544323206e-13" as="sourcePoint" />
            <mxPoint x="860" y="339.9999999999998" as="targetPoint" />
            <Array as="points">
              <mxPoint x="370" y="60" />
            </Array>
          </mxGeometry>
        </mxCell>
        <mxCell id="198" value="" style="edgeStyle=elbowEdgeStyle;elbow=horizontal;rounded=0;fontColor=#030303;endArrow=none;endFill=0;strokeWidth=8;strokeColor=#030303;fillColor=none;fontSize=16;fontStyle=1" parent="1" source="178" target="186" edge="1">
          <mxGeometry width="100" height="100" relative="1" as="geometry">
            <mxPoint x="860" y="-2.2737367544323206e-13" as="sourcePoint" />
            <mxPoint x="859.9999999999998" y="259.9999999999998" as="targetPoint" />
            <Array as="points">
              <mxPoint x="370" y="-20" />
            </Array>
          </mxGeometry>
        </mxCell>
        <mxCell id="199" value="phân quyền và bảo mật " style="whiteSpace=wrap;rounded=1;fillColor=none;strokeColor=#030303;shadow=1;fontColor=#030303;fontSize=16;rotation=90;fontStyle=1" parent="1" vertex="1">
          <mxGeometry x="539.9999999999998" y="-180.00000000000028" width="120" height="60" as="geometry" />
        </mxCell>
        <mxCell id="200" value="kết nối dịch vụ giao hàng" style="whiteSpace=wrap;rounded=1;fillColor=none;strokeColor=#030303;shadow=1;fontColor=#030303;fontSize=16;rotation=90;fontStyle=1" parent="1" vertex="1">
          <mxGeometry x="850" y="-20.000000000000284" width="120" height="60" as="geometry" />
        </mxCell>
        <mxCell id="201" value="phân quyền người dùng " style="whiteSpace=wrap;rounded=1;fillColor=none;strokeColor=#030303;shadow=1;fontColor=#030303;fontStyle=1;fontSize=16;rotation=90;" parent="1" vertex="1">
          <mxGeometry x="639.9999999999998" y="-20.000000000000284" width="120" height="60" as="geometry" />
        </mxCell>
        <mxCell id="202" value="bảo mật dữ liệu " style="whiteSpace=wrap;rounded=1;fillColor=none;strokeColor=#030303;shadow=1;fontColor=#030303;fontStyle=1;fontSize=16;rotation=90;" parent="1" vertex="1">
          <mxGeometry x="640" y="132" width="120" height="58" as="geometry" />
        </mxCell>
        <mxCell id="206" value="theo dõi trạng thái giao hàng " style="whiteSpace=wrap;rounded=1;fillColor=none;strokeColor=#030303;shadow=1;fontColor=#030303;fontStyle=1;fontSize=16;rotation=90;" parent="1" vertex="1">
          <mxGeometry x="849.9999999999991" y="119.99999999999972" width="120" height="60" as="geometry" />
        </mxCell>
        <mxCell id="207" value="quản lý đơn hàng thất bại" style="whiteSpace=wrap;rounded=1;fillColor=none;strokeColor=#030303;shadow=1;fontColor=#030303;fontStyle=1;fontSize=16;rotation=90;" parent="1" vertex="1">
          <mxGeometry x="849.9999999999995" y="257.9999999999998" width="120" height="60" as="geometry" />
        </mxCell>
        <mxCell id="211" value="" style="edgeStyle=elbowEdgeStyle;elbow=horizontal;rounded=0;fontColor=#030303;endArrow=none;endFill=0;strokeWidth=8;strokeColor=#030303;fillColor=none;fontSize=16;fontStyle=1" parent="1" source="199" target="201" edge="1">
          <mxGeometry width="100" height="100" relative="1" as="geometry">
            <mxPoint x="940" y="-5.999999999999943" as="sourcePoint" />
            <mxPoint x="949.9999999999995" y="93.9999999999996" as="targetPoint" />
            <Array as="points">
              <mxPoint x="600" y="-46" />
            </Array>
          </mxGeometry>
        </mxCell>
        <mxCell id="212" value="" style="edgeStyle=elbowEdgeStyle;elbow=horizontal;rounded=0;fontColor=#030303;endArrow=none;endFill=0;strokeWidth=8;strokeColor=#030303;fillColor=none;fontSize=16;fontStyle=1" parent="1" source="199" target="202" edge="1">
          <mxGeometry width="100" height="100" relative="1" as="geometry">
            <mxPoint x="950" y="-6.000000000000398" as="sourcePoint" />
            <mxPoint x="949.9999999999998" y="173.9999999999996" as="targetPoint" />
            <Array as="points">
              <mxPoint x="600" y="-36" />
            </Array>
          </mxGeometry>
        </mxCell>
        <mxCell id="216" value="" style="edgeStyle=elbowEdgeStyle;elbow=horizontal;rounded=0;fontColor=#030303;endArrow=none;endFill=0;strokeWidth=8;strokeColor=#030303;fillColor=none;fontSize=16;fontStyle=1" parent="1" edge="1">
          <mxGeometry width="100" height="100" relative="1" as="geometry">
            <mxPoint x="884" y="-10.000000000000455" as="sourcePoint" />
            <mxPoint x="883.9999999999991" y="129.99999999999955" as="targetPoint" />
            <Array as="points">
              <mxPoint x="830" y="60" />
            </Array>
          </mxGeometry>
        </mxCell>
        <mxCell id="217" value="" style="edgeStyle=elbowEdgeStyle;elbow=horizontal;rounded=0;fontColor=#030303;endArrow=none;endFill=0;strokeWidth=8;strokeColor=#030303;fillColor=none;fontSize=16;exitX=1;exitY=0.5;exitDx=0;exitDy=0;entryX=0.5;entryY=1;entryDx=0;entryDy=0;fontStyle=1" parent="1" source="5" target="207" edge="1">
          <mxGeometry width="100" height="100" relative="1" as="geometry">
            <mxPoint x="880" y="81.99999999999955" as="sourcePoint" />
            <mxPoint x="877.0503597122297" y="300" as="targetPoint" />
            <Array as="points">
              <mxPoint x="830" y="230" />
            </Array>
          </mxGeometry>
        </mxCell>
        <mxCell id="222" value="" style="edgeStyle=elbowEdgeStyle;elbow=vertical;rounded=0;fontColor=#030303;endArrow=none;endFill=0;strokeWidth=8;strokeColor=#030303;fillColor=none;fontSize=16;fontStyle=1" parent="1" edge="1">
          <mxGeometry width="100" height="100" relative="1" as="geometry">
            <mxPoint x="-110" y="-70" as="sourcePoint" />
            <mxPoint x="-110" y="-12" as="targetPoint" />
            <Array as="points">
              <mxPoint x="-110" y="-40" />
            </Array>
          </mxGeometry>
        </mxCell>
        <mxCell id="227" value="" style="edgeStyle=elbowEdgeStyle;elbow=vertical;rounded=0;fontColor=#030303;endArrow=none;endFill=0;strokeWidth=8;strokeColor=#030303;fillColor=none;entryX=0;entryY=0.5;entryDx=0;entryDy=0;fontSize=16;exitX=1;exitY=0.5;exitDx=0;exitDy=0;fontStyle=1" parent="1" source="2" target="199" edge="1">
          <mxGeometry width="100" height="100" relative="1" as="geometry">
            <mxPoint x="20" y="-230" as="sourcePoint" />
            <mxPoint x="630" y="-156.00000000000028" as="targetPoint" />
            <Array as="points">
              <mxPoint x="350" y="-270" />
              <mxPoint x="690" y="-190" />
            </Array>
          </mxGeometry>
        </mxCell>
        <mxCell id="232" value="" style="edgeStyle=elbowEdgeStyle;elbow=vertical;rounded=0;fontColor=#030303;endArrow=none;endFill=0;strokeWidth=8;strokeColor=#030303;fillColor=none;exitX=1;exitY=0.5;exitDx=0;exitDy=0;entryX=0;entryY=0.5;entryDx=0;entryDy=0;fontSize=16;fontStyle=1" parent="1" source="2" target="156" edge="1">
          <mxGeometry width="100" height="100" relative="1" as="geometry">
            <mxPoint x="20" y="-231.79999999999995" as="sourcePoint" />
            <mxPoint x="138.5" y="-149.99999999999977" as="targetPoint" />
            <Array as="points">
              <mxPoint x="110" y="-270" />
            </Array>
          </mxGeometry>
        </mxCell>
        <mxCell id="233" value="" style="edgeStyle=elbowEdgeStyle;elbow=vertical;rounded=0;fontColor=#030303;endArrow=none;endFill=0;strokeWidth=8;strokeColor=#030303;fillColor=none;entryX=0;entryY=0.5;entryDx=0;entryDy=0;fontSize=16;exitX=1;exitY=0.5;exitDx=0;exitDy=0;fontStyle=1" parent="1" source="2" target="178" edge="1">
          <mxGeometry width="100" height="100" relative="1" as="geometry">
            <mxPoint x="20" y="-230" as="sourcePoint" />
            <mxPoint x="384.03999999999996" y="-149.2800000000001" as="targetPoint" />
            <Array as="points">
              <mxPoint x="220" y="-270" />
            </Array>
          </mxGeometry>
        </mxCell>
        <mxCell id="234" value="" style="edgeStyle=elbowEdgeStyle;elbow=vertical;rounded=0;fontColor=#030303;endArrow=none;endFill=0;strokeWidth=8;strokeColor=#030303;fillColor=none;exitX=1;exitY=0.5;exitDx=0;exitDy=0;fontSize=16;fontStyle=1" parent="1" source="2" edge="1">
          <mxGeometry width="100" height="100" relative="1" as="geometry">
            <mxPoint x="19.999999999999886" y="-230" as="sourcePoint" />
            <mxPoint x="830" y="-210" as="targetPoint" />
            <Array as="points">
              <mxPoint x="460" y="-270" />
            </Array>
          </mxGeometry>
        </mxCell>
        <mxCell id="-vjzCXLaoHAbI3B1IHuT-237" value="" style="edgeStyle=elbowEdgeStyle;elbow=vertical;rounded=0;fontColor=#030303;endArrow=none;endFill=0;strokeWidth=8;strokeColor=#030303;fillColor=none;fontSize=16;fontStyle=1" edge="1" parent="1" source="23">
          <mxGeometry width="100" height="100" relative="1" as="geometry">
            <mxPoint x="-860" y="-80" as="sourcePoint" />
            <mxPoint x="-870" y="-40" as="targetPoint" />
            <Array as="points">
              <mxPoint x="-830" y="10" />
            </Array>
          </mxGeometry>
        </mxCell>
        <mxCell id="-vjzCXLaoHAbI3B1IHuT-238" value="" style="edgeStyle=elbowEdgeStyle;elbow=vertical;rounded=0;fontColor=#030303;endArrow=none;endFill=0;strokeWidth=8;strokeColor=#030303;fillColor=none;fontSize=16;fontStyle=1" edge="1" parent="1" source="24">
          <mxGeometry width="100" height="100" relative="1" as="geometry">
            <mxPoint x="-790" y="-30" as="sourcePoint" />
            <mxPoint x="-870" y="60" as="targetPoint" />
            <Array as="points">
              <mxPoint x="-870" y="140" />
            </Array>
          </mxGeometry>
        </mxCell>
        <mxCell id="-vjzCXLaoHAbI3B1IHuT-239" value="" style="edgeStyle=elbowEdgeStyle;elbow=vertical;rounded=0;fontColor=#030303;endArrow=none;endFill=0;strokeWidth=8;strokeColor=#030303;fillColor=none;fontSize=16;fontStyle=1" edge="1" parent="1" source="25">
          <mxGeometry width="100" height="100" relative="1" as="geometry">
            <mxPoint x="-780" y="63" as="sourcePoint" />
            <mxPoint x="-870" y="160" as="targetPoint" />
            <Array as="points">
              <mxPoint x="-830" y="290" />
              <mxPoint x="-820" y="150" />
            </Array>
          </mxGeometry>
        </mxCell>
        <mxCell id="-vjzCXLaoHAbI3B1IHuT-240" value="" style="edgeStyle=elbowEdgeStyle;elbow=vertical;rounded=0;fontColor=#030303;endArrow=none;endFill=0;strokeWidth=8;strokeColor=#030303;fillColor=none;fontSize=16;fontStyle=1" edge="1" parent="1" source="26">
          <mxGeometry width="100" height="100" relative="1" as="geometry">
            <mxPoint x="-720" y="440" as="sourcePoint" />
            <mxPoint x="-870" y="200" as="targetPoint" />
            <Array as="points">
              <mxPoint x="-840" y="430" />
              <mxPoint x="-810" y="370" />
            </Array>
          </mxGeometry>
        </mxCell>
        <mxCell id="-vjzCXLaoHAbI3B1IHuT-250" value="" style="edgeStyle=elbowEdgeStyle;elbow=vertical;rounded=0;fontColor=#030303;endArrow=none;endFill=0;strokeWidth=8;strokeColor=#030303;fillColor=none;exitX=1;exitY=0.5;exitDx=0;exitDy=0;entryX=0;entryY=0.5;entryDx=0;entryDy=0;fontStyle=1" edge="1" parent="1" source="2">
          <mxGeometry width="100" height="100" relative="1" as="geometry">
            <mxPoint x="19" y="-477" as="sourcePoint" />
            <mxPoint x="-591.0000000000005" y="-210" as="targetPoint" />
            <Array as="points">
              <mxPoint x="-291" y="-270" />
            </Array>
          </mxGeometry>
        </mxCell>
        <mxCell id="-vjzCXLaoHAbI3B1IHuT-251" value="" style="edgeStyle=elbowEdgeStyle;elbow=vertical;rounded=0;fontColor=#030303;endArrow=none;endFill=0;strokeWidth=8;strokeColor=#030303;fillColor=none;fontSize=16;exitX=1;exitY=0.5;exitDx=0;exitDy=0;fontStyle=1" edge="1" parent="1" source="2" target="4">
          <mxGeometry width="100" height="100" relative="1" as="geometry">
            <mxPoint x="50" y="-330" as="sourcePoint" />
            <mxPoint x="-330.0000000000002" y="-150.00000000000023" as="targetPoint" />
            <Array as="points">
              <mxPoint x="-140" y="-270" />
            </Array>
          </mxGeometry>
        </mxCell>
        <mxCell id="4" value="xử lý đơn hàng" style="whiteSpace=wrap;rounded=1;fillColor=none;strokeColor=#030303;shadow=1;fontColor=#030303;fontStyle=1;fontSize=16;rotation=90;" parent="1" vertex="1">
          <mxGeometry x="-415" y="-170.0000000000002" width="140" height="60" as="geometry" />
        </mxCell>
        <mxCell id="-vjzCXLaoHAbI3B1IHuT-252" value="" style="edgeStyle=elbowEdgeStyle;elbow=horizontal;rounded=0;fontColor=#030303;endArrow=none;endFill=0;strokeWidth=8;strokeColor=#030303;fillColor=none;fontSize=16;entryX=0.5;entryY=1;entryDx=0;entryDy=0;exitX=1;exitY=0.5;exitDx=0;exitDy=0;fontStyle=1" edge="1" parent="1" source="38" target="40">
          <mxGeometry width="100" height="100" relative="1" as="geometry">
            <mxPoint x="-570" y="-80" as="sourcePoint" />
            <mxPoint x="-500" y="-50" as="targetPoint" />
            <Array as="points">
              <mxPoint x="-580" />
            </Array>
          </mxGeometry>
        </mxCell>
        <mxCell id="-vjzCXLaoHAbI3B1IHuT-253" style="edgeStyle=orthogonalEdgeStyle;rounded=0;orthogonalLoop=1;jettySize=auto;html=1;exitX=0.75;exitY=1;exitDx=0;exitDy=0;entryX=0.747;entryY=0.767;entryDx=0;entryDy=0;entryPerimeter=0;fillColor=none;strokeColor=#030303;fontColor=#030303;fontStyle=1" edge="1" parent="1" source="201" target="201">
          <mxGeometry relative="1" as="geometry" />
        </mxCell>
        <mxCell id="-vjzCXLaoHAbI3B1IHuT-256" value="Text" style="text;html=1;align=center;verticalAlign=middle;resizable=0;points=[];autosize=1;strokeColor=none;fillColor=none;fontStyle=1" vertex="1" parent="1">
          <mxGeometry x="-465" y="988" width="50" height="30" as="geometry" />
        </mxCell>
      </root>
    </mxGraphModel>
  </diagram>
</mxfile>
